<svg width="552" height="275" viewBox="0 50 552 275" fill="none" xmlns="http://www.w3.org/2000/svg">
<rect width="552" height="275" fill="#222220"/>
<path d="M450.93 195.174C445.341 195.174 440.158 193.867 435.381 191.252C430.693 188.548 426.907 184.762 424.023 179.895C421.228 174.937 419.831 169.168 419.831 162.587C419.831 156.097 421.048 150.418 423.482 145.55C426.006 140.683 429.566 136.897 434.164 134.193C438.761 131.488 444.169 130.136 450.389 130.136C453.995 130.136 457.375 130.767 460.53 132.029C463.685 133.291 466.344 134.869 468.508 136.762C470.671 138.564 472.113 140.367 472.835 142.17L473.105 131.759H487.032V193.822H473.24L472.97 182.869C471.437 186.114 468.643 188.999 464.587 191.523C460.53 193.957 455.978 195.174 450.93 195.174ZM453.364 183.004C458.502 183.004 462.829 181.247 466.344 177.731C469.86 174.125 471.618 169.438 471.618 163.669V162.722C471.618 158.846 470.806 155.376 469.184 152.311C467.561 149.246 465.353 146.857 462.558 145.145C459.764 143.432 456.699 142.576 453.364 142.576C447.595 142.576 443.133 144.469 439.978 148.255C436.823 151.951 435.245 156.773 435.245 162.722C435.245 168.762 436.778 173.675 439.843 177.461C442.998 181.157 447.505 183.004 453.364 183.004Z" fill="#F7CF47"/>
<path fill-rule="evenodd" clip-rule="evenodd" d="M377.392 142.296H388.344V192.46H402.369V145.92L397.09 142.451H404.493L417.415 142.296V130.397H402.425L402.425 101.306L388.357 105.348V130.397H377.392V142.296Z" fill="#F7CF47"/>
<path fill-rule="evenodd" clip-rule="evenodd" d="M356.334 98.4922L370.334 94.4067V193.327H356.334V98.4922Z" fill="#F7CF47"/>
<path d="M318.613 195.174C311.221 195.174 305.047 193.731 300.089 190.847C295.131 187.872 291.48 183.951 289.137 179.083C286.793 174.125 285.621 168.717 285.621 162.858C285.621 156.277 286.973 150.508 289.677 145.55C292.472 140.593 296.303 136.807 301.171 134.193C306.038 131.488 311.537 130.136 317.667 130.136C327.222 130.136 334.298 132.795 338.895 138.114C343.582 143.342 345.926 150.734 345.926 160.289C345.926 162.722 345.791 165.246 345.521 167.861H300.9C301.892 173.359 303.83 177.326 306.714 179.759C309.689 182.193 313.791 183.41 319.019 183.41C323.346 183.41 326.906 183.05 329.701 182.328C332.495 181.607 335.064 180.616 337.408 179.354L341.87 189.765C339.616 191.207 336.551 192.469 332.675 193.551C328.799 194.633 324.112 195.174 318.613 195.174ZM331.729 157.72C331.819 152.131 330.602 148.21 328.078 145.956C325.554 143.612 321.948 142.441 317.261 142.441C307.796 142.441 302.342 147.534 300.9 157.72H331.729Z" fill="#F7CF47"/>
<path d="M256.26 148.255L259.64 143.387L244.631 143.793H233.949V131.759H282.22L254.231 177.461L250.851 182.599L265.454 182.058L281.139 181.788V193.822H228L256.26 148.255Z" fill="#F7CF47"/>
<path fill-rule="evenodd" clip-rule="evenodd" d="M195 98H65V228H195V98ZM175.812 202.615L143.295 146.294L156.744 123H84L116.517 179.321L103.068 202.615H175.812ZM120.372 172.558L95.639 129.72H145.105L120.372 172.558ZM139.44 153.057L114.707 195.895H164.173L139.44 153.057Z" fill="#F7CF47"/>
</svg>
